<?xml version="1.0" encoding="utf-8"?>
<!-- Generator: Adobe Illustrator 27.1.1, SVG Export Plug-In . SVG Version: 6.00 Build 0)  -->
<svg version="1.1" id="Layer_1" xmlns="http://www.w3.org/2000/svg" xmlns:xlink="http://www.w3.org/1999/xlink" x="0px" y="0px"
	 viewBox="0 0 535.5 513.2" style="enable-background:new 0 0 535.5 513.2;" xml:space="preserve">
<style type="text/css">
	.st0{fill:#487685;}
</style>
<path class="st0" d="M317.4,0.4C216,6.7,133.4,88.3,126,189.7c-3.2,43.8,7.4,84.9,27.8,119.5l-147,147c-9,9-9,23.7,0,32.7l17.6,17.6
	c9,9,23.7,9,32.7,0l143.1-143.1c39.3,32.4,90.8,50.4,146.6,46.1c100.8-7.8,181.9-90.1,188.3-191C542.9,94.8,441.1-7.2,317.4,0.4z
	 M330.4,356.5C246.8,356.5,179,288.7,179,205c0-83.7,67.8-151.5,151.5-151.5c83.7,0,151.5,67.8,151.5,151.5
	C481.9,288.7,414.1,356.5,330.4,356.5z"/>
</svg>
